HIERARCHY
ROOT Hips
{
    OFFSET   0.000000   0.000000   0.000000
    CHANNELS 6 Xposition Yposition Zposition Zrotation Xrotation Yrotation
    JOINT Chest
    {
        OFFSET   0.000000   8.007240   0.000000
        CHANNELS 3 Zrotation Xrotation Yrotation
        JOINT Chest2
        {
            OFFSET   0.000000  22.077100   0.000000
            CHANNELS 3 Zrotation Xrotation Yrotation
            JOINT Neck
            {
                OFFSET   0.000000  23.254800   0.000000
                CHANNELS 3 Zrotation Xrotation Yrotation
                JOINT Head
                {
                    OFFSET   0.000000  14.370000   1.956600
                    CHANNELS 3 Zrotation Xrotation Yrotation
                    End Site
                    {
                        OFFSET   0.000000  19.566000   0.000000
                    }
                }
            }
            JOINT LeftCollar
            {
                OFFSET   3.911900  19.017000  -0.467064
                CHANNELS 3 Zrotation Xrotation Yrotation
                JOINT LeftShoulder
                {
                    OFFSET  10.383700   0.000000   0.000000
                    CHANNELS 3 Zrotation Xrotation Yrotation
                    JOINT LeftElbow
                    {
                        OFFSET  26.662100   0.001476   0.000517
                        CHANNELS 3 Zrotation Xrotation Yrotation
                        JOINT LeftWrist
                        {
                            OFFSET  28.869000  -0.000025  -0.000106
                            CHANNELS 3 Zrotation Xrotation Yrotation
                            JOINT LeftFinger0
                            {
                                OFFSET   2.044660  -2.323460   3.252850
                                CHANNELS 3 Zrotation Xrotation Yrotation
                                JOINT LeftFinger01
                                {
                                    OFFSET   3.088130   0.000000   0.000000
                                    CHANNELS 3 Zrotation Xrotation Yrotation
                                    JOINT LeftFinger02
                                    {
                                        OFFSET   2.639460   0.000000   0.000000
                                        CHANNELS 3 Zrotation Xrotation Yrotation
                                        End Site
                                        {
                                            OFFSET   2.582190   0.000000   0.000000
                                        }
                                    }
                                }
                            }
                            JOINT LeftFinger1
                            {
                                OFFSET   8.364480   0.000000   3.252850
                                CHANNELS 3 Zrotation Xrotation Yrotation
                                JOINT LeftFinger11
                                {
                                    OFFSET   4.646930   0.000000   0.000000
                                    CHANNELS 3 Zrotation Xrotation Yrotation
                                    JOINT LeftFinger12
                                    {
                                        OFFSET   2.323460   0.000000   0.000000
                                        CHANNELS 3 Zrotation Xrotation Yrotation
                                        End Site
                                        {
                                            OFFSET   2.273050   0.000000   0.000000
                                        }
                                    }
                                }
                            }
                            JOINT LeftFinger2
                            {
                                OFFSET   8.364490   0.000015   1.078090
                                CHANNELS 3 Zrotation Xrotation Yrotation
                                JOINT LeftFinger21
                                {
                                    OFFSET   5.111620   0.000000   0.000000
                                    CHANNELS 3 Zrotation Xrotation Yrotation
                                    JOINT LeftFinger22
                                    {
                                        OFFSET   2.788160   0.000016   0.000000
                                        CHANNELS 3 Zrotation Xrotation Yrotation
                                        End Site
                                        {
                                            OFFSET   2.727660   0.000000   0.000000
                                        }
                                    }
                                }
                            }
                            JOINT LeftFinger3
                            {
                                OFFSET   7.899780   0.000017  -1.078090
                                CHANNELS 3 Zrotation Xrotation Yrotation
                                JOINT LeftFinger31
                                {
                                    OFFSET   4.646930   0.000000   0.000000
                                    CHANNELS 3 Zrotation Xrotation Yrotation
                                    JOINT LeftFinger32
                                    {
                                        OFFSET   2.323470   0.000000   0.000000
                                        CHANNELS 3 Zrotation Xrotation Yrotation
                                        End Site
                                        {
                                            OFFSET   2.273050   0.000000   0.000000
                                        }
                                    }
                                }
                            }
                            JOINT LeftFinger4
                            {
                                OFFSET   7.435090   0.000000  -3.252850
                                CHANNELS 3 Zrotation Xrotation Yrotation
                                JOINT LeftFinger41
                                {
                                    OFFSET   3.717550   0.000000   0.000000
                                    CHANNELS 3 Zrotation Xrotation Yrotation
                                    JOINT LeftFinger42
                                    {
                                        OFFSET   1.858770   0.000000   0.000000
                                        CHANNELS 3 Zrotation Xrotation Yrotation
                                        End Site
                                        {
                                            OFFSET   1.818440   0.000000   0.000000
                                        }
                                    }
                                }
                            }
                        }
                    }
                }
            }
            JOINT RightCollar
            {
                OFFSET  -3.911900  19.017000  -0.467063
                CHANNELS 3 Zrotation Xrotation Yrotation
                JOINT RightShoulder
                {
                    OFFSET -10.383700   0.000019   0.000000
                    CHANNELS 3 Zrotation Xrotation Yrotation
                    JOINT RightElbow
                    {
                        OFFSET -26.662100   0.001175   0.000102
                        CHANNELS 3 Zrotation Xrotation Yrotation
                        JOINT RightWrist
                        {
                            OFFSET -28.869000   0.000016  -0.000079
                            CHANNELS 3 Zrotation Xrotation Yrotation
                            JOINT RightFinger0
                            {
                                OFFSET  -2.044660  -2.323490   3.252850
                                CHANNELS 3 Zrotation Xrotation Yrotation
                                JOINT RightFinger01
                                {
                                    OFFSET  -3.088140   0.000000   0.000000
                                    CHANNELS 3 Zrotation Xrotation Yrotation
                                    JOINT RightFinger02
                                    {
                                        OFFSET  -2.639460   0.000000   0.000000
                                        CHANNELS 3 Zrotation Xrotation Yrotation
                                        End Site
                                        {
                                            OFFSET  -2.582190   0.000000   0.000000
                                        }
                                    }
                                }
                            }
                            JOINT RightFinger1
                            {
                                OFFSET  -8.364480   0.000000   3.252850
                                CHANNELS 3 Zrotation Xrotation Yrotation
                                JOINT RightFinger11
                                {
                                    OFFSET  -4.646930   0.000000   0.000000
                                    CHANNELS 3 Zrotation Xrotation Yrotation
                                    JOINT RightFinger12
                                    {
                                        OFFSET  -2.323470   0.000000   0.000000
                                        CHANNELS 3 Zrotation Xrotation Yrotation
                                        End Site
                                        {
                                            OFFSET  -2.273050   0.000000   0.000000
                                        }
                                    }
                                }
                            }
                            JOINT RightFinger2
                            {
                                OFFSET  -8.364480   0.000000   1.078090
                                CHANNELS 3 Zrotation Xrotation Yrotation
                                JOINT RightFinger21
                                {
                                    OFFSET  -5.111620   0.000000   0.000000
                                    CHANNELS 3 Zrotation Xrotation Yrotation
                                    JOINT RightFinger22
                                    {
                                        OFFSET  -2.788160   0.000000   0.000000
                                        CHANNELS 3 Zrotation Xrotation Yrotation
                                        End Site
                                        {
                                            OFFSET  -2.727660   0.000000   0.000000
                                        }
                                    }
                                }
                            }
                            JOINT RightFinger3
                            {
                                OFFSET  -7.899780   0.000000  -1.078090
                                CHANNELS 3 Zrotation Xrotation Yrotation
                                JOINT RightFinger31
                                {
                                    OFFSET  -4.646930   0.000000   0.000000
                                    CHANNELS 3 Zrotation Xrotation Yrotation
                                    JOINT RightFinger32
                                    {
                                        OFFSET  -2.323470   0.000000   0.000000
                                        CHANNELS 3 Zrotation Xrotation Yrotation
                                        End Site
                                        {
                                            OFFSET  -2.273050   0.000000   0.000000
                                        }
                                    }
                                }
                            }
                            JOINT RightFinger4
                            {
                                OFFSET  -7.435090   0.000000  -3.252850
                                CHANNELS 3 Zrotation Xrotation Yrotation
                                JOINT RightFinger41
                                {
                                    OFFSET  -3.717550   0.000000   0.000000
                                    CHANNELS 3 Zrotation Xrotation Yrotation
                                    JOINT RightFinger42
                                    {
                                        OFFSET  -1.858770   0.000000   0.000000
                                        CHANNELS 3 Zrotation Xrotation Yrotation
                                        End Site
                                        {
                                            OFFSET  -1.818440   0.000000   0.000000
                                        }
                                    }
                                }
                            }
                        }
                    }
                }
            }
        }
    }
    JOINT LeftHip
    {
        OFFSET   9.783040   0.000000   0.000000
        CHANNELS 3 Zrotation Xrotation Yrotation
        JOINT LeftKnee
        {
            OFFSET   0.000032 -41.789100  -0.002222
            CHANNELS 3 Zrotation Xrotation Yrotation
            JOINT LeftAnkle
            {
                OFFSET   0.000087 -41.133200  -0.000135
                CHANNELS 3 Zrotation Xrotation Yrotation
                JOINT LeftToe
                {
                    OFFSET   0.000000  -6.358960  14.674500
                    CHANNELS 3 Zrotation Xrotation Yrotation
                    End Site
                    {
                        OFFSET   0.000000   0.000000   3.913200
                    }
                }
            }
        }
    }
    JOINT RightHip
    {
        OFFSET  -9.783040   0.000000   0.000000
        CHANNELS 3 Zrotation Xrotation Yrotation
        JOINT RightKnee
        {
            OFFSET   0.000047 -41.789100  -0.000896
            CHANNELS 3 Zrotation Xrotation Yrotation
            JOINT RightAnkle
            {
                OFFSET  -0.000117 -41.133300  -0.000248
                CHANNELS 3 Zrotation Xrotation Yrotation
                JOINT RightToe
                {
                    OFFSET   0.000000  -6.358970  14.674500
                    CHANNELS 3 Zrotation Xrotation Yrotation
                    End Site
                    {
                        OFFSET   0.000000   0.000000   3.913200
                    }
                }
            }
        }
    }
}
MOTION
Frames: 5
Frame Time:   0.016667
 -1.565630  89.498200   1.528830  -3.038690 -14.030300   1.581580   2.106450   8.246250   0.648601   4.183610  16.510700   1.002590  -2.770230   2.177480   0.105346  -4.569430   4.384530   5.401560 -10.483600   1.088450  -5.362900 -66.028700  15.660200 -27.546700   9.254840  -3.284030 -74.901800   2.206800 -17.817400   3.204720  42.726500  42.530300 -86.714500  16.711800  -0.001914   0.000646  13.356800   0.000231  -0.002685 -13.979100   1.617250  -6.468300 -11.512200   0.002094  -0.000309  -8.058520   0.005590   0.003595 -19.319300  -1.191120   3.393320 -19.354600   0.009944  -0.002293 -12.890200   0.000582   0.000412 -24.024500  -4.834610  10.707000 -24.477800   0.003831   0.000448 -16.302200  -0.003707   0.001251 -29.025900 -12.373700  21.115000 -47.011100   0.001170  -0.003743 -31.309400   0.004670   0.003686   6.300400  -3.295910  16.761900  62.484000   9.884110  19.115400 -22.322400 -18.585800  81.168500 -24.036700  11.744700  27.433000 -69.310900  49.570100 103.865000 -20.513500   0.001779  -0.006364 -15.000000   0.009043  -0.002946  10.335500   3.784590  19.897100   8.999560   0.007496  -0.000623   6.299700   0.004548  -0.002731  12.564700   0.786071   3.522970  12.588800   0.003111  -0.003030   8.384120   0.001226  -0.002426  19.520500  -2.315410  -6.500610  19.652000   0.001865  -0.002526  13.088200   0.002078   0.000682  22.793400  -8.890550 -20.191300  36.568900   0.001633   0.001287  24.354900  -0.001562  -0.005520   4.225000  16.855000   3.389200   0.244980   0.002601   8.713590  -2.925980  -2.092140   0.247976   0.000000   0.000000   0.000000   2.426910  11.095600  -6.750740   0.781528   6.713590  -8.357640  -2.797660  -3.244250  -1.097980  -0.000000   0.000000   0.000000
 -1.548100  89.511700   1.556930  -3.018130 -13.987700   1.662580   2.109600   8.212640   0.640457   4.191020  16.443200   0.986511  -2.719700   2.130960   0.101216  -4.485410   4.291710   5.383800 -10.502400   1.089420  -5.384550 -65.974100  15.884000 -27.649400   9.324430  -3.269700 -74.850600   2.270120 -17.668500   3.253380  42.744400  42.551600 -86.740800  16.714100  -0.001971   0.000659  13.358000   0.000156  -0.002700 -13.932000   1.608350  -6.454210 -11.473200   0.002187  -0.000300  -8.031220   0.005539   0.003678 -19.295900  -1.188390   3.390020 -19.331000   0.010135  -0.002183 -12.874500   0.000737   0.000401 -23.974800  -4.827340  10.717200 -24.427800   0.003840   0.000465 -16.268900  -0.003802   0.001267 -28.947400 -12.370600  21.162800 -46.902200   0.001164  -0.003545 -31.236800   0.004677   0.003728   6.328510  -3.277370  16.773100  62.578200  10.048100  19.168200 -22.301200 -18.515800  81.084000 -24.172800  11.973700  27.558400 -69.241200  49.569500 103.810000 -20.498300   0.001513  -0.006665 -15.000000   0.009297  -0.002924  10.356600   3.799540  19.927500   9.019900   0.007843  -0.000683   6.313940   0.004747  -0.002839  12.613100   0.781650   3.494470  12.637100   0.003284  -0.003141   8.416330   0.001287  -0.002517  19.535400  -2.342760  -6.559340  19.666600   0.001956  -0.002604  13.097900   0.002077   0.000508  22.756700  -8.937770 -20.287200  36.554100   0.001637   0.001053  24.345100  -0.001626  -0.005877   4.205900  16.815800   3.363370   0.244731   0.021607   8.674710  -2.911740  -2.111280   0.238833   0.000000   0.000000  -0.000000   2.414590  11.104400  -6.739810   0.790162   6.667840  -8.408980  -2.785150  -3.248830  -1.132900   0.000000   0.000000   0.000000
 -1.532490  89.524700   1.584250  -2.999710 -13.945800   1.739690   2.113950   8.180380   0.625577   4.201960  16.378100   0.957095  -2.671230   2.083260   0.097146  -4.404740   4.196460   5.366440 -10.513100   1.089530  -5.403860 -65.893700  16.086500 -27.732300   9.378590  -3.258600 -74.818200   2.335090 -17.528000   3.312850  42.783600  42.597900 -86.798600  16.716300  -0.002029   0.000671  13.358900   0.000079  -0.002718 -13.906500   1.599780  -6.433730 -11.451500   0.002281  -0.000285  -8.016090   0.005487   0.003764 -19.281500  -1.185490   3.384530 -19.316500   0.010323  -0.002067 -12.864800   0.000898   0.000392 -23.945400  -4.822900  10.723300 -24.398200   0.003852   0.000482 -16.249200  -0.003899   0.001284 -28.898000 -12.368900  21.192700 -46.834000   0.001153  -0.003342 -31.191400   0.004683   0.003769   6.351110  -3.255670  16.784000  62.655600  10.206900  19.210300 -22.282300 -18.445900  80.982300 -24.273800  12.257700  27.704100 -69.016800  49.532500 103.625000 -20.490700   0.001248  -0.006963 -15.000000   0.009546  -0.002905  10.411900   3.825870  19.958100   9.069760   0.008190  -0.000743   6.348860   0.004949  -0.002944  12.634000   0.768682   3.426670  12.656900   0.003456  -0.003251   8.429490   0.001355  -0.002606  19.530800  -2.372940  -6.656760  19.668700   0.002054  -0.002674  13.099300   0.002075   0.000321  22.702500  -8.964980 -20.429700  36.481400   0.001640   0.000815  24.296600  -0.001686  -0.006232   4.188960  16.759100   3.345950   0.244504   0.040616   8.642390  -2.899470  -2.130420   0.220274   0.000000   0.000000   0.000000   2.405450  11.112800  -6.723920   0.797503   6.619480  -8.459110  -2.775360  -3.249460  -1.167660  -0.000000   0.000000   0.000000
 -1.518710  89.535700   1.613410  -2.983930 -13.909400   1.800060   2.118930   8.148900   0.610405   4.214160  16.314600   0.926689  -2.630560   2.035270   0.093474  -4.336930   4.100810   5.337330 -10.508700   1.089470  -5.412080 -65.821500  16.251200 -27.789000   9.438730  -3.234070 -74.810500   2.390360 -17.411200   3.380660  42.846600  42.671600 -86.891700  16.712700  -0.002084   0.000703  13.356700  -0.000003  -0.002740 -13.913800   1.593910  -6.404660 -11.456800   0.002374  -0.000261  -8.019810   0.005429   0.003857 -19.303900  -1.185370   3.382330 -19.338900   0.010513  -0.001944 -12.879800   0.001063   0.000384 -23.964800  -4.826100  10.719300 -24.417700   0.003856   0.000491 -16.262200  -0.004007   0.001302 -28.961600 -12.372800  21.153800 -46.923000   0.001134  -0.003134 -31.250600   0.004678   0.003806   6.366730  -3.225340  16.789300  62.709200  10.352900  19.249700 -22.246500 -18.374900  80.875300 -24.255000  12.579900  27.838500 -68.804700  49.414000 103.242000 -20.512600   0.000995  -0.007262 -15.000000   0.009786  -0.002891  10.528900   3.856810  19.917300   9.169430   0.008534  -0.000801   6.418620   0.005152  -0.003049  12.627500   0.744101   3.318460  12.648700   0.003623  -0.003358   8.424020   0.001440  -0.002698  19.489900  -2.398650  -6.739000  19.632000   0.002154  -0.002753  13.074900   0.002079   0.000129  22.594900  -8.949920 -20.513200  36.312500   0.001644   0.000554  24.184100  -0.001749  -0.006573   4.172950  16.735700   3.342930   0.242450   0.020889   8.620480  -2.883060  -2.129140   0.195458  -0.000000   0.000000  -0.000000   2.400980  11.120600  -6.716940   0.798837   6.574060  -8.493930  -2.770990  -3.248420  -1.196450   0.000000   0.000000   0.000000
 -1.507450  89.545100   1.640750  -2.969750 -13.877800   1.847520   2.125140   8.121990   0.594486   4.228990  16.260300   0.894426  -2.595090   1.982600   0.089849  -4.277620   3.995600   5.297080 -10.503000   1.089120  -5.413920 -65.745200  16.387500 -27.834600   9.485720  -3.210700 -74.803200   2.435240 -17.312500   3.440480  42.897400  42.730600 -86.966800  16.709200  -0.002137   0.000739  13.354600  -0.000084  -0.002764 -13.920600   1.589630  -6.385890 -11.462200   0.002467  -0.000233  -8.023530   0.005371   0.003952 -19.326300  -1.185260   3.375740 -19.361400   0.010699  -0.001817 -12.894700   0.001233   0.000377 -23.984100  -4.829300  10.715300 -24.437300   0.003857   0.000502 -16.275200  -0.004114   0.001321 -29.025300 -12.376300  21.114800 -47.011900   0.001118  -0.002922 -31.309900   0.004672   0.003842   6.379010  -3.206220  16.791000  62.749200  10.489200  19.284500 -22.199500 -18.313000  80.767600 -24.194100  12.895900  27.953400 -68.722900  49.274300 102.833000 -20.553400   0.000746  -0.007558 -15.000000   0.010025  -0.002880  10.613900   3.877160  19.842900   9.239160   0.008876  -0.000862   6.467410   0.005356  -0.003152  12.598000   0.717684   3.208590  12.618100   0.003788  -0.003466   8.403650   0.001528  -0.002788  19.411800  -2.412140  -6.810360  19.555400   0.002262  -0.002832  13.023900   0.002083  -0.000072  22.447500  -8.921670 -20.574700  36.105100   0.001647   0.000283  24.046000  -0.001812  -0.006912   4.160660  16.716700   3.342230   0.238325   0.001160   8.601240  -2.868520  -2.127850   0.172655  -0.000000   0.000000   0.000000   2.398020  11.127400  -6.711920   0.797497   6.534690  -8.519460  -2.770650  -3.247380  -1.221050  -0.000000   0.000000   0.000000
